# xmcd CD database file
#
# Track frame offsets:
#	150
#	20275
#	36657
#	66527
#	82460
#	106517
#	123660
#	146800
#
# Disc length: 2326 seconds
#
# Revision: 0
# Processed by: cddbd v1.5.1PL0 Copyright (c) Steve Scherf et al.
# Submitted via: CDex 1.51
#
DISCID=79091408
DTITLE=McCoy Tyner - Special Jazz McCoy Tyner
DYEAR=1900
DGENRE=Jazz
TTITLE0=Inception
TTITLE1=We'll be Together Again
TTITLE2=Effendi
TTITLE3=Caravan
TTITLE4=Blue Monk
TTITLE5=Have You Meet Miss Jones？
TTITLE6=Solitude
TTITLE7=Autumn Leaves
EXTD=
EXTT0=
EXTT1=
EXTT2=
EXTT3=
EXTT4=
EXTT5=
EXTT6=
EXTT7=
PLAYORDER=
